<?xml version="1.0" encoding="UTF-8" standalone="no"?>
<!-- Created with Inkscape (http://www.inkscape.org/) -->

<svg
   xmlns:dc="http://purl.org/dc/elements/1.1/"
   xmlns:cc="http://creativecommons.org/ns#"
   xmlns:rdf="http://www.w3.org/1999/02/22-rdf-syntax-ns#"
   xmlns:svg="http://www.w3.org/2000/svg"
   xmlns="http://www.w3.org/2000/svg"
   xmlns:xlink="http://www.w3.org/1999/xlink"
   xmlns:sodipodi="http://sodipodi.sourceforge.net/DTD/sodipodi-0.dtd"
   xmlns:inkscape="http://www.inkscape.org/namespaces/inkscape"
   sodipodi:docname="zbcont.svg"
   inkscape:version="0.92.3 (2405546, 2018-03-11)"
   id="svg8"
   version="1.1"
   viewBox="0 0 41.426777 25.802915"
   height="25.802914mm"
   width="41.426777mm">
  <sodipodi:namedview
     inkscape:window-maximized="1"
     inkscape:window-y="-1"
     inkscape:window-x="-8"
     inkscape:window-height="1137"
     inkscape:window-width="1920"
     showgrid="false"
     inkscape:current-layer="equation_00-1"
     inkscape:document-units="mm"
     inkscape:cy="70.480125"
     inkscape:cx="53.478057"
     inkscape:zoom="3.959798"
     inkscape:pageshadow="2"
     inkscape:pageopacity="0.0"
     borderopacity="1.0"
     bordercolor="#666666"
     pagecolor="#ffffff"
     id="base" />
  <defs
     id="defs2">
    <marker
       inkscape:isstock="true"
       style="overflow:visible"
       id="marker10215"
       refX="0"
       refY="0"
       orient="auto"
       inkscape:stockid="Arrow1Mend">
      <path
         transform="matrix(-0.4,0,0,-0.4,-4,0)"
         style="fill:#000000;fill-opacity:1;fill-rule:evenodd;stroke:#000000;stroke-width:1.00000003pt;stroke-opacity:1"
         d="M 0,0 5,-5 -12.5,0 5,5 Z"
         id="path10213"
         inkscape:connector-curvature="0" />
    </marker>
    <marker
       inkscape:isstock="true"
       style="overflow:visible"
       id="marker10049"
       refX="0"
       refY="0"
       orient="auto"
       inkscape:stockid="Arrow1Lend">
      <path
         transform="matrix(-0.8,0,0,-0.8,-10,0)"
         style="fill:#000000;fill-opacity:1;fill-rule:evenodd;stroke:#000000;stroke-width:1.00000003pt;stroke-opacity:1"
         d="M 0,0 5,-5 -12.5,0 5,5 Z"
         id="path10047"
         inkscape:connector-curvature="0" />
    </marker>
    <marker
       inkscape:isstock="true"
       style="overflow:visible"
       id="Arrow1Mstart"
       refX="0"
       refY="0"
       orient="auto"
       inkscape:stockid="Arrow1Mstart">
      <path
         transform="matrix(0.4,0,0,0.4,4,0)"
         style="fill:#000000;fill-opacity:1;fill-rule:evenodd;stroke:#000000;stroke-width:1.00000003pt;stroke-opacity:1"
         d="M 0,0 5,-5 -12.5,0 5,5 Z"
         id="path2129"
         inkscape:connector-curvature="0" />
    </marker>
    <marker
       inkscape:stockid="Arrow2Mend"
       orient="auto"
       refY="0"
       refX="0"
       id="marker9719"
       style="overflow:visible"
       inkscape:isstock="true">
      <path
         inkscape:connector-curvature="0"
         id="path9717"
         style="fill:#000000;fill-opacity:1;fill-rule:evenodd;stroke:#000000;stroke-width:0.625;stroke-linejoin:round;stroke-opacity:1"
         d="M 8.7185878,4.0337352 -2.2072895,0.01601326 8.7185884,-4.0017078 c -1.7454984,2.3720609 -1.7354408,5.6174519 -6e-7,8.035443 z"
         transform="scale(-0.6)" />
    </marker>
    <marker
       inkscape:isstock="true"
       style="overflow:visible"
       id="Arrow1Mend"
       refX="0"
       refY="0"
       orient="auto"
       inkscape:stockid="Arrow1Mend">
      <path
         transform="matrix(-0.4,0,0,-0.4,-4,0)"
         style="fill:#ff0000;fill-opacity:1;fill-rule:evenodd;stroke:#ff0000;stroke-width:1.00000003pt;stroke-opacity:1"
         d="M 0,0 5,-5 -12.5,0 5,5 Z"
         id="path2132"
         inkscape:connector-curvature="0" />
    </marker>
    <marker
       inkscape:isstock="true"
       style="overflow:visible"
       id="Arrow2Mend"
       refX="0"
       refY="0"
       orient="auto"
       inkscape:stockid="Arrow2Mend">
      <path
         transform="scale(-0.6)"
         d="M 8.7185878,4.0337352 -2.2072895,0.01601326 8.7185884,-4.0017078 c -1.7454984,2.3720609 -1.7354408,5.6174519 -6e-7,8.035443 z"
         style="fill:#ff0000;fill-opacity:1;fill-rule:evenodd;stroke:#ff0000;stroke-width:0.625;stroke-linejoin:round;stroke-opacity:1"
         id="path2150"
         inkscape:connector-curvature="0" />
    </marker>
    <marker
       inkscape:isstock="true"
       style="overflow:visible"
       id="Arrow1Send"
       refX="0"
       refY="0"
       orient="auto"
       inkscape:stockid="Arrow1Send">
      <path
         transform="matrix(-0.2,0,0,-0.2,-1.2,0)"
         style="fill:#000000;fill-opacity:1;fill-rule:evenodd;stroke:#000000;stroke-width:1.00000003pt;stroke-opacity:1"
         d="M 0,0 5,-5 -12.5,0 5,5 Z"
         id="path2138"
         inkscape:connector-curvature="0" />
    </marker>
    <marker
       inkscape:isstock="true"
       style="overflow:visible"
       id="marker2388"
       refX="0"
       refY="0"
       orient="auto"
       inkscape:stockid="Arrow1Lend">
      <path
         transform="matrix(-0.8,0,0,-0.8,-10,0)"
         style="fill:#000000;fill-opacity:1;fill-rule:evenodd;stroke:#000000;stroke-width:1.00000003pt;stroke-opacity:1"
         d="M 0,0 5,-5 -12.5,0 5,5 Z"
         id="path2126"
         inkscape:connector-curvature="0" />
    </marker>
    <marker
       inkscape:stockid="Arrow1Lend"
       orient="auto"
       refY="0"
       refX="0"
       id="marker1898"
       style="overflow:visible"
       inkscape:isstock="true">
      <path
         inkscape:connector-curvature="0"
         id="path1896"
         d="M 0,0 5,-5 -12.5,0 5,5 Z"
         style="fill:#fe0000;fill-opacity:1;fill-rule:evenodd;stroke:#fe0000;stroke-width:1.00000003pt;stroke-opacity:1"
         transform="matrix(-0.8,0,0,-0.8,-10,0)" />
    </marker>
    <marker
       inkscape:stockid="Arrow1Lend"
       orient="auto"
       refY="0"
       refX="0"
       id="Arrow1Lend"
       style="overflow:visible"
       inkscape:isstock="true">
      <path
         inkscape:connector-curvature="0"
         id="path929"
         d="M 0,0 5,-5 -12.5,0 5,5 Z"
         style="fill:#fe0000;fill-opacity:1;fill-rule:evenodd;stroke:#fe0000;stroke-width:1.00000003pt;stroke-opacity:1"
         transform="matrix(-0.8,0,0,-0.8,-10,0)" />
    </marker>
    <marker
       inkscape:stockid="Arrow1Lstart"
       orient="auto"
       refY="0"
       refX="0"
       id="Arrow1Lstart"
       style="overflow:visible"
       inkscape:isstock="true">
      <path
         inkscape:connector-curvature="0"
         id="path926"
         d="M 0,0 5,-5 -12.5,0 5,5 Z"
         style="fill:#000000;fill-opacity:1;fill-rule:evenodd;stroke:#000000;stroke-width:1.00000003pt;stroke-opacity:1"
         transform="matrix(0.8,0,0,0.8,10,0)" />
    </marker>
    <marker
       inkscape:stockid="Arrow1Lend"
       orient="auto"
       refY="0"
       refX="0"
       id="marker1898-4"
       style="overflow:visible"
       inkscape:isstock="true">
      <path
         inkscape:connector-curvature="0"
         id="path1896-3"
         d="M 0,0 5,-5 -12.5,0 5,5 Z"
         style="fill:#fe0000;fill-opacity:1;fill-rule:evenodd;stroke:#fe0000;stroke-width:1.00000003pt;stroke-opacity:1"
         transform="matrix(-0.8,0,0,-0.8,-10,0)" />
    </marker>
    <marker
       inkscape:isstock="true"
       style="overflow:visible"
       id="Arrow2Mend-5-8"
       refX="0"
       refY="0"
       orient="auto"
       inkscape:stockid="Arrow2Mend">
      <path
         transform="scale(-0.6)"
         d="M 8.7185878,4.0337352 -2.2072895,0.01601326 8.7185884,-4.0017078 c -1.7454984,2.3720609 -1.7354408,5.6174519 -6e-7,8.035443 z"
         style="fill:#ff0000;fill-opacity:1;fill-rule:evenodd;stroke:#ff0000;stroke-width:0.625;stroke-linejoin:round;stroke-opacity:1"
         id="path2150-6-2"
         inkscape:connector-curvature="0" />
    </marker>
    <marker
       inkscape:isstock="true"
       style="overflow:visible"
       id="Arrow2Mend-5-5"
       refX="0"
       refY="0"
       orient="auto"
       inkscape:stockid="Arrow2Mend">
      <path
         transform="scale(-0.6)"
         d="M 8.7185878,4.0337352 -2.2072895,0.01601326 8.7185884,-4.0017078 c -1.7454984,2.3720609 -1.7354408,5.6174519 -6e-7,8.035443 z"
         style="fill:#fe0000;fill-opacity:1;fill-rule:evenodd;stroke:#fe0000;stroke-width:0.625;stroke-linejoin:round;stroke-opacity:1"
         id="path2150-6-9"
         inkscape:connector-curvature="0" />
    </marker>
    <marker
       inkscape:isstock="true"
       style="overflow:visible"
       id="Arrow2Mend-5-5-3"
       refX="0"
       refY="0"
       orient="auto"
       inkscape:stockid="Arrow2Mend">
      <path
         transform="scale(-0.6)"
         d="M 8.7185878,4.0337352 -2.2072895,0.01601326 8.7185884,-4.0017078 c -1.7454984,2.3720609 -1.7354408,5.6174519 -6e-7,8.035443 z"
         style="fill:#fe0000;fill-opacity:1;fill-rule:evenodd;stroke:#fe0000;stroke-width:0.625;stroke-linejoin:round;stroke-opacity:1"
         id="path2150-6-9-0"
         inkscape:connector-curvature="0" />
    </marker>
    <marker
       inkscape:isstock="true"
       style="overflow:visible"
       id="Arrow2Mend-5-5-3-1"
       refX="0"
       refY="0"
       orient="auto"
       inkscape:stockid="Arrow2Mend">
      <path
         transform="scale(-0.6)"
         d="M 8.7185878,4.0337352 -2.2072895,0.01601326 8.7185884,-4.0017078 c -1.7454984,2.3720609 -1.7354408,5.6174519 -6e-7,8.035443 z"
         style="fill:#fe0000;fill-opacity:1;fill-rule:evenodd;stroke:#fe0000;stroke-width:0.625;stroke-linejoin:round;stroke-opacity:1"
         id="path2150-6-9-0-4"
         inkscape:connector-curvature="0" />
    </marker>
    <marker
       inkscape:isstock="true"
       style="overflow:visible"
       id="Arrow2Mend-5-5-3-1-8"
       refX="0"
       refY="0"
       orient="auto"
       inkscape:stockid="Arrow2Mend">
      <path
         transform="scale(-0.6)"
         d="M 8.7185878,4.0337352 -2.2072895,0.01601326 8.7185884,-4.0017078 c -1.7454984,2.3720609 -1.7354408,5.6174519 -6e-7,8.035443 z"
         style="fill:#fe0000;fill-opacity:1;fill-rule:evenodd;stroke:#fe0000;stroke-width:0.625;stroke-linejoin:round;stroke-opacity:1"
         id="path2150-6-9-0-4-6"
         inkscape:connector-curvature="0" />
    </marker>
    <marker
       inkscape:isstock="true"
       style="overflow:visible"
       id="Arrow2Mend-5-5-3-1-8-8"
       refX="0"
       refY="0"
       orient="auto"
       inkscape:stockid="Arrow2Mend">
      <path
         transform="scale(-0.6)"
         d="M 8.7185878,4.0337352 -2.2072895,0.01601326 8.7185884,-4.0017078 c -1.7454984,2.3720609 -1.7354408,5.6174519 -6e-7,8.035443 z"
         style="fill:#fe0000;fill-opacity:1;fill-rule:evenodd;stroke:#fe0000;stroke-width:0.625;stroke-linejoin:round;stroke-opacity:1"
         id="path2150-6-9-0-4-6-6"
         inkscape:connector-curvature="0" />
    </marker>
    <marker
       inkscape:isstock="true"
       style="overflow:visible"
       id="Arrow2Mend-5-5-3-1-8-8-2"
       refX="0"
       refY="0"
       orient="auto"
       inkscape:stockid="Arrow2Mend">
      <path
         transform="scale(-0.6)"
         d="M 8.7185878,4.0337352 -2.2072895,0.01601326 8.7185884,-4.0017078 c -1.7454984,2.3720609 -1.7354408,5.6174519 -6e-7,8.035443 z"
         style="fill:#fe0000;fill-opacity:1;fill-rule:evenodd;stroke:#fe0000;stroke-width:0.625;stroke-linejoin:round;stroke-opacity:1"
         id="path2150-6-9-0-4-6-6-8"
         inkscape:connector-curvature="0" />
    </marker>
    <marker
       inkscape:isstock="true"
       style="overflow:visible"
       id="Arrow2Mend-5-5-3-1-8-8-2-7"
       refX="0"
       refY="0"
       orient="auto"
       inkscape:stockid="Arrow2Mend">
      <path
         transform="scale(-0.6)"
         d="M 8.7185878,4.0337352 -2.2072895,0.01601326 8.7185884,-4.0017078 c -1.7454984,2.3720609 -1.7354408,5.6174519 -6e-7,8.035443 z"
         style="fill:#fe0000;fill-opacity:1;fill-rule:evenodd;stroke:#fe0000;stroke-width:0.625;stroke-linejoin:round;stroke-opacity:1"
         id="path2150-6-9-0-4-6-6-8-1"
         inkscape:connector-curvature="0" />
    </marker>
    <marker
       inkscape:isstock="true"
       style="overflow:visible"
       id="Arrow2Mend-5-5-3-1-8-8-2-7-8"
       refX="0"
       refY="0"
       orient="auto"
       inkscape:stockid="Arrow2Mend">
      <path
         transform="scale(-0.6)"
         d="M 8.7185878,4.0337352 -2.2072895,0.01601326 8.7185884,-4.0017078 c -1.7454984,2.3720609 -1.7354408,5.6174519 -6e-7,8.035443 z"
         style="fill:#fe0000;fill-opacity:1;fill-rule:evenodd;stroke:#fe0000;stroke-width:0.625;stroke-linejoin:round;stroke-opacity:1"
         id="path2150-6-9-0-4-6-6-8-1-7"
         inkscape:connector-curvature="0" />
    </marker>
    <marker
       inkscape:isstock="true"
       style="overflow:visible"
       id="Arrow2Mend-5-5-3-1-8-8-2-7-8-6"
       refX="0"
       refY="0"
       orient="auto"
       inkscape:stockid="Arrow2Mend">
      <path
         transform="scale(-0.6)"
         d="M 8.7185878,4.0337352 -2.2072895,0.01601326 8.7185884,-4.0017078 c -1.7454984,2.3720609 -1.7354408,5.6174519 -6e-7,8.035443 z"
         style="fill:#fe0000;fill-opacity:1;fill-rule:evenodd;stroke:#fe0000;stroke-width:0.625;stroke-linejoin:round;stroke-opacity:1"
         id="path2150-6-9-0-4-6-6-8-1-7-9"
         inkscape:connector-curvature="0" />
    </marker>
    <marker
       inkscape:isstock="true"
       style="overflow:visible"
       id="Arrow2Mend-5-5-3-1-8-8-2-7-5"
       refX="0"
       refY="0"
       orient="auto"
       inkscape:stockid="Arrow2Mend">
      <path
         transform="scale(-0.6)"
         d="M 8.7185878,4.0337352 -2.2072895,0.01601326 8.7185884,-4.0017078 c -1.7454984,2.3720609 -1.7354408,5.6174519 -6e-7,8.035443 z"
         style="fill:#fe0000;fill-opacity:1;fill-rule:evenodd;stroke:#fe0000;stroke-width:0.625;stroke-linejoin:round;stroke-opacity:1"
         id="path2150-6-9-0-4-6-6-8-1-1"
         inkscape:connector-curvature="0" />
    </marker>
    <path
       id="equation_00_00-0"
       d="m 2.21171,-3.64633 v -2.45081 c 0,-0.32876 0.01992,-0.3985 0.48817,-0.3985 h 1.23536 c 0.96638,0 1.31507,0.84682 1.31507,1.37484 0,0.63761 -0.48817,1.47447 -1.59402,1.47447 z m 2.35118,0.08967 c 0.96638,-0.18929 1.6538,-0.8269 1.6538,-1.56414 0,-0.86675 -0.91657,-1.68368 -2.21171,-1.68368 H 0.358655 v 0.30884 h 0.239103 c 0.767122,0 0.787052,0.10959 0.787052,0.46824 v 5.250314 c 0,0.358655 -0.01993,0.468244 -0.787052,0.468244 H 0.358655 V 0 H 4.26401 c 1.32503,0 2.22167,-0.886675 2.22167,-1.82316 0,-0.86675 -0.81694,-1.61395 -1.92279,-1.7335 z M 3.94521,-0.308842 H 2.69988 c -0.46825,0 -0.48817,-0.069738 -0.48817,-0.398505 V -3.42715 h 1.87297 c 0.9863,0 1.40473,0.92653 1.40473,1.59402 0,0.70735 -0.51805,1.524288 -1.5442,1.524288 z"
       inkscape:connector-curvature="0" />
    <path
       id="equation_00_01-6"
       d="M 5.79826,-6.7746 H 0.328767 v 0.30885 H 0.56787 c 0.76712,0 0.78705,0.10959 0.78705,0.46824 v 5.220424 c 0,0.358655 -0.01993,0.468244 -0.78705,0.468244 H 0.328767 V 0 C 0.67746,-0.0298879 1.45455,-0.0298879 1.84309,-0.0298879 c 0.40847,0 1.31507,0 1.67372,0.0298879 V -0.308842 H 3.18804 c -0.94645,0 -0.94645,-0.129514 -0.94645,-0.478207 V -3.23786 h 0.85679 c 0.95641,0 1.05604,0.31881 1.05604,1.16563 h 0.24907 v -2.6401 H 4.15442 c 0,0.83686 -0.09963,1.16563 -1.05604,1.16563 H 2.24159 v -2.52055 c 0,-0.32876 0.01993,-0.3985 0.48817,-0.3985 h 1.19552 c 1.4944,0 1.74346,0.5579 1.90286,1.93275 h 0.24907 z"
       inkscape:connector-curvature="0" />
    <marker
       inkscape:isstock="true"
       style="overflow:visible"
       id="marker10215-1"
       refX="0"
       refY="0"
       orient="auto"
       inkscape:stockid="Arrow1Mend">
      <path
         transform="matrix(-0.4,0,0,-0.4,-4,0)"
         style="fill:#000000;fill-opacity:1;fill-rule:evenodd;stroke:#000000;stroke-width:1.00000003pt;stroke-opacity:1"
         d="M 0,0 5,-5 -12.5,0 5,5 Z"
         id="path10213-9"
         inkscape:connector-curvature="0" />
    </marker>
  </defs>
  <metadata
     id="metadata5">
    <rdf:RDF>
      <cc:Work
         rdf:about="">
        <dc:format>image/svg+xml</dc:format>
        <dc:type
           rdf:resource="http://purl.org/dc/dcmitype/StillImage" />
        <dc:title />
      </cc:Work>
    </rdf:RDF>
  </metadata>
  <g
     transform="translate(-51.534461,-101.38745)"
     inkscape:label="レイヤー 1"
     inkscape:groupmode="layer"
     id="layer1" />
  <g
     title="F\_{B}"
     style="fill:#000000;stroke:#0000ff;stroke-opacity:1"
     id="equation_00-1"
     transform="matrix(0.76354951,0,0,0.99917755,-8.8139353,-40.516873)">
    <defs
       id="defs3429-1">
      <path
         id="path9486"
         d="m 2.21171,-3.64633 v -2.45081 c 0,-0.32876 0.01992,-0.3985 0.48817,-0.3985 h 1.23536 c 0.96638,0 1.31507,0.84682 1.31507,1.37484 0,0.63761 -0.48817,1.47447 -1.59402,1.47447 z m 2.35118,0.08967 c 0.96638,-0.18929 1.6538,-0.8269 1.6538,-1.56414 0,-0.86675 -0.91657,-1.68368 -2.21171,-1.68368 H 0.358655 v 0.30884 h 0.239103 c 0.767122,0 0.787052,0.10959 0.787052,0.46824 v 5.250314 c 0,0.358655 -0.01993,0.468244 -0.787052,0.468244 H 0.358655 V 0 H 4.26401 c 1.32503,0 2.22167,-0.886675 2.22167,-1.82316 0,-0.86675 -0.81694,-1.61395 -1.92279,-1.7335 z M 3.94521,-0.308842 H 2.69988 c -0.46825,0 -0.48817,-0.069738 -0.48817,-0.398505 V -3.42715 h 1.87297 c 0.9863,0 1.40473,0.92653 1.40473,1.59402 0,0.70735 -0.51805,1.524288 -1.5442,1.524288 z"
         inkscape:connector-curvature="0" />
      <path
         id="path9488"
         d="M 5.79826,-6.7746 H 0.328767 v 0.30885 H 0.56787 c 0.76712,0 0.78705,0.10959 0.78705,0.46824 v 5.220424 c 0,0.358655 -0.01993,0.468244 -0.78705,0.468244 H 0.328767 V 0 C 0.67746,-0.0298879 1.45455,-0.0298879 1.84309,-0.0298879 c 0.40847,0 1.31507,0 1.67372,0.0298879 V -0.308842 H 3.18804 c -0.94645,0 -0.94645,-0.129514 -0.94645,-0.478207 V -3.23786 h 0.85679 c 0.95641,0 1.05604,0.31881 1.05604,1.16563 h 0.24907 v -2.6401 H 4.15442 c 0,0.83686 -0.09963,1.16563 -1.05604,1.16563 H 2.24159 v -2.52055 c 0,-0.32876 0.01993,-0.3985 0.48817,-0.3985 h 1.19552 c 1.4944,0 1.74346,0.5579 1.90286,1.93275 h 0.24907 z"
         inkscape:connector-curvature="0" />
    </defs>
    <path
       style="fill:none;stroke:#0000ff;stroke-width:0.30291623px;stroke-linecap:butt;stroke-linejoin:miter;stroke-opacity:1"
       d="M 11.543373,40.701682 H 65.798895"
       id="path1387"
       inkscape:connector-curvature="0" />
    <path
       style="fill:none;stroke:#000000;stroke-width:0.30291623px;stroke-linecap:butt;stroke-linejoin:miter;stroke-opacity:1"
       d="M 11.543371,54.675662 H 65.798894"
       id="path1387-0"
       inkscape:connector-curvature="0" />
    <rect
       style="opacity:1;vector-effect:none;fill:none;fill-opacity:1;stroke:#ff0000;stroke-width:0.47169065;stroke-linecap:butt;stroke-linejoin:miter;stroke-miterlimit:4;stroke-dasharray:0.47169066, 0.47169066;stroke-dashoffset:0;stroke-opacity:1"
       id="rect1404"
       width="15.31406"
       height="9.0277729"
       x="29.395189"
       y="54.616516" />
    <path
       style="fill:none;stroke:#000000;stroke-width:0.30339327;stroke-linecap:butt;stroke-linejoin:miter;stroke-miterlimit:4;stroke-dasharray:none;stroke-opacity:1;marker-end:url(#marker10215)"
       d="m 19.608264,52.800206 h 8.400855"
       id="path1406"
       inkscape:connector-curvature="0" />
    <path
       style="fill:none;stroke:#000000;stroke-width:0.30339327;stroke-linecap:butt;stroke-linejoin:miter;stroke-miterlimit:4;stroke-dasharray:none;stroke-opacity:1;marker-end:url(#marker10215-1)"
       d="m 45.97139,52.733333 h 8.400855"
       id="path1406-1"
       inkscape:connector-curvature="0" />
    <g
       title="$z_b$"
       style="fill:#000000;stroke:none"
       id="equation_00"
       transform="matrix(0.49757755,0,0,0.49757755,23.201742,22.171964)">
      <defs
         id="defs2090">
        <path
           id="equation_00_00"
           d="m 1.8411,-4.63064 c 0.00697,-0.01394 0.02789,-0.1046 0.02789,-0.11158 0,-0.03487 -0.02789,-0.09763 -0.11158,-0.09763 -0.13948,0 -0.71831,0.05579 -0.892653,0.06974 -0.055791,0.00697 -0.153424,0.01395 -0.153424,0.1604 0,0.09763 0.097633,0.09763 0.18132,0.09763 0.334747,0 0.334747,0.04882 0.334747,0.10461 0,0.04881 -0.06974,0.32777 -0.11158,0.48817 l -0.160403,0.64159 c -0.062764,0.23711 -0.446326,1.76438 -0.460274,1.85504 -0.034869,0.16738 -0.034869,0.25804 -0.034869,0.34172 0,0.704362 0.446326,1.1506885 1.025156,1.1506885 0.87173,0 1.79925,-0.9484435 1.79925,-1.9805685 0,-0.81594 -0.56488,-1.16464 -1.04607,-1.16464 -0.36264,0 -0.66949,0.20224 -0.87871,0.38356 z m -0.3487,4.505111 c -0.34172,0 -0.536983,-0.299876 -0.536983,-0.711333 0,-0.258028 0.062763,-0.495138 0.258033,-1.283188 0.04184,-0.1325 0.04184,-0.14645 0.17435,-0.29988 0.265,-0.30684 0.57883,-0.46027 0.82988,-0.46027 0.27198,0 0.50909,0.20224 0.50909,0.67646 0,0.28593 -0.15342,0.99726 -0.36264,1.401747 -0.16737,0.341719 -0.51606,0.676464 -0.87173,0.676464 z"
           inkscape:connector-curvature="0" />
        <path
           id="equation_00_01"
           d="M 1.32503,-0.826899 C 1.86301,-1.40473 2.15193,-1.6538 2.51059,-1.96264 c 0,-0.00996 0.61768,-0.53798 0.97633,-0.89664 0.94645,-0.92652 1.16563,-1.40473 1.16563,-1.44458 0,-0.09963 -0.08966,-0.09963 -0.10959,-0.09963 -0.06973,0 -0.09962,0.01993 -0.14944,0.10959 -0.29887,0.47821 -0.50809,0.63761 -0.74719,0.63761 -0.2391,0 -0.35866,-0.14944 -0.5081,-0.3188 -0.18929,-0.22914 -0.35865,-0.4284 -0.68742,-0.4284 -0.7472,0 -1.20548,0.92653 -1.20548,1.13574 0,0.04982 0.02989,0.10959 0.11955,0.10959 0.08966,0 0.10959,-0.04981 0.12952,-0.10959 0.18929,-0.45828 0.76712,-0.46824 0.84682,-0.46824 0.20922,0 0.39851,0.06974 0.62765,0.14944 0.3985,0.14944 0.50809,0.14944 0.76712,0.14944 -0.35866,0.42839 -1.19552,1.1457 -1.38481,1.30511 l -0.89663,0.83686 c -0.677464,0.667494 -1.026156,1.2353642 -1.026156,1.30510264 0,0.09962636 0.099626,0.09962636 0.119551,0.09962636 0.079701,0 0.099627,-0.0199252 0.159402,-0.1295143 C 0.936488,-0.368618 1.23537,-0.637609 1.55417,-0.637609 c 0.22914,0 0.32877,0.089664 0.57783,0.37858 0.16937,0.2092158 0.3487,0.368618 0.63761,0.368618 0.98631,0 1.56414,-1.265259 1.56414,-1.534249 0,-0.04981 -0.03985,-0.09962 -0.11955,-0.09962 -0.08967,0 -0.10959,0.05977 -0.13948,0.12951 -0.22914,0.647572 -0.86675,0.836862 -1.19552,0.836862 -0.19925,0 -0.37858,-0.059776 -0.58779,-0.129514 -0.33873,-0.129514 -0.48817,-0.169365 -0.69739,-0.169365 -0.01992,0 -0.17933,0 -0.26899,0.029888 z"
           inkscape:connector-curvature="0" />
      </defs>
      <g
         id="equation_00_g"
         style="stroke:none">
        <use
           id="use2092"
           y="62.764599"
           xlink:href="#equation_00_01"
           x="76.712303"
           style="stroke:none"
           width="100%"
           height="100%" />
        <use
           id="use2094"
           y="64.259003"
           xlink:href="#equation_00_00"
           x="81.345497"
           style="stroke:none"
           width="100%"
           height="100%" />
      </g>
    </g>
    <g
       transform="matrix(0.46184658,0,0,0.49341024,-16.029317,19.975504)"
       id="equation_02"
       style="fill:#000000;stroke:none"
       title="$q_{bin}$">
      <defs
         id="defs2567">
        <path
           inkscape:connector-curvature="0"
           d="m 4.50311,-4.2939 c 0,-0.03985 -0.02988,-0.09962 -0.09962,-0.09962 -0.10959,0 -0.5081,0.3985 -0.67746,0.68742 -0.21918,-0.53798 -0.60772,-0.69739 -0.92653,-0.69739 -1.17559,0 -2.400994,1.47447 -2.400994,2.91906 0,0.976335 0.587795,1.594019 1.315064,1.594019 0.4284,0 0.81694,-0.239103 1.1756,-0.597758 C 2.7995,-0.139477 2.47073,1.20548 2.44085,1.29514 2.36115,1.5741 2.28144,1.61395 1.72354,1.62391 c -0.12952,0 -0.22914,0 -0.22914,0.19925 0,0.00997 0,0.10959 0.12951,0.10959 0.3188,0 0.6675,-0.02989 0.99626,-0.02989 0.33873,0 0.69739,0.02989 1.02616,0.02989 0.04981,0 0.17932,0 0.17932,-0.19925 0,-0.10959 -0.09962,-0.10959 -0.25902,-0.10959 -0.47821,0 -0.47821,-0.06974 -0.47821,-0.1594 0,-0.06974 0.01992,-0.12952 0.03985,-0.21918 z m -2.75965,4.184311 c -0.59776,0 -0.63761,-0.767123 -0.63761,-0.936491 0,-0.4782 0.28892,-1.56413 0.45828,-1.98256 0.30885,-0.73724 0.8269,-1.15567 1.23537,-1.15567 0.64757,0 0.78705,0.80698 0.78705,0.87671 0,0.05978 -0.54794,2.2416 -0.57783,2.28145 -0.14944,0.278952 -0.70735,0.916561 -1.26526,0.916561 z"
           id="equation_02_00" />
        <path
           inkscape:connector-curvature="0"
           d="m 1.8411,-4.63064 c 0.00697,-0.01394 0.02789,-0.1046 0.02789,-0.11158 0,-0.03487 -0.02789,-0.09763 -0.11158,-0.09763 -0.13948,0 -0.71831,0.05579 -0.892653,0.06974 -0.055791,0.00697 -0.153424,0.01395 -0.153424,0.1604 0,0.09763 0.097633,0.09763 0.18132,0.09763 0.334747,0 0.334747,0.04882 0.334747,0.10461 0,0.04881 -0.06974,0.32777 -0.11158,0.48817 l -0.160403,0.64159 c -0.062764,0.23711 -0.446326,1.76438 -0.460274,1.85504 -0.034869,0.16738 -0.034869,0.25804 -0.034869,0.34172 0,0.704362 0.446326,1.1506885 1.025156,1.1506885 0.87173,0 1.79925,-0.9484435 1.79925,-1.9805685 0,-0.81594 -0.56488,-1.16464 -1.04607,-1.16464 -0.36264,0 -0.66949,0.20224 -0.87871,0.38356 z m -0.3487,4.505111 c -0.34172,0 -0.536983,-0.299876 -0.536983,-0.711333 0,-0.258028 0.062763,-0.495138 0.258033,-1.283188 0.04184,-0.1325 0.04184,-0.14645 0.17435,-0.29988 0.265,-0.30684 0.57883,-0.46027 0.82988,-0.46027 0.27198,0 0.50909,0.20224 0.50909,0.67646 0,0.28593 -0.15342,0.99726 -0.36264,1.401747 -0.16737,0.341719 -0.51606,0.676464 -0.87173,0.676464 z"
           id="equation_02_01" />
        <path
           inkscape:connector-curvature="0"
           d="m 2.25953,-4.35866 c 0,-0.11158 -0.08369,-0.265 -0.27896,-0.265 -0.18829,0 -0.39053,0.18132 -0.39053,0.38356 0,0.11856 0.09066,0.26501 0.27895,0.26501 0.20224,0 0.39054,-0.19527 0.39054,-0.38357 z m -1.422668,3.54272 c -0.027896,0.09066 -0.062765,0.174346 -0.062765,0.292901 0,0.327771 0.278953,0.5927775 0.662513,0.5927775 0.69739,0 1.00424,-0.9623915 1.00424,-1.0669985 0,-0.09066 -0.09066,-0.09066 -0.11158,-0.09066 -0.09764,0 -0.10461,0.04184 -0.13251,0.118555 -0.1604,0.557908 -0.46725,0.843836 -0.73923,0.843836 -0.13947,0 -0.17434,-0.09066 -0.17434,-0.244085 0,-0.160398 0.04881,-0.292902 0.11158,-0.446326 0.06974,-0.18829 0.14645,-0.37659 0.22316,-0.55791 0.06277,-0.16737 0.31383,-0.80199 0.34172,-0.88568 0.02092,-0.06974 0.04184,-0.15342 0.04184,-0.22316 0,-0.32777 -0.27895,-0.59278 -0.66251,-0.59278 -0.690412,0 -1.011209,0.94845 -1.011209,1.067 0,0.09066 0.097634,0.09066 0.118555,0.09066 0.097634,0 0.104608,-0.03487 0.12553,-0.11158 0.18132,-0.59975 0.488164,-0.85081 0.746204,-0.85081 0.11158,0 0.17434,0.05579 0.17434,0.24409 0,0.16039 -0.04184,0.265 -0.21619,0.69738 z"
           id="equation_02_02" />
        <path
           inkscape:connector-curvature="0"
           d="m 0.850809,-0.439352 c -0.027895,0.09066 -0.069738,0.265006 -0.069738,0.285927 0,0.153425 0.125529,0.2231635 0.237109,0.2231635 0.12553,0 0.23711,-0.09066 0.27198,-0.1534247 0.03487,-0.0627647 0.09066,-0.2859278 0.12553,-0.4323788 0.03487,-0.132503 0.11158,-0.4533 0.15343,-0.627645 0.04184,-0.15343 0.08368,-0.30685 0.11855,-0.46725 0.07671,-0.28593 0.09066,-0.34172 0.2929,-0.62765 0.19527,-0.27895 0.52304,-0.64159 1.04608,-0.64159 0.40448,0 0.41146,0.35567 0.41146,0.48817 0,0.41843 -0.29988,1.19253 -0.41146,1.48543 -0.07671,0.195267 -0.10461,0.258032 -0.10461,0.376588 0,0.369613 0.30685,0.5997505 0.66252,0.5997505 0.69738,0 1.00423,-0.9623915 1.00423,-1.0669985 0,-0.09066 -0.09066,-0.09066 -0.11158,-0.09066 -0.09763,0 -0.10461,0.04184 -0.1325,0.118555 -0.1604,0.557908 -0.46028,0.843836 -0.73923,0.843836 -0.14645,0 -0.17435,-0.097634 -0.17435,-0.244085 0,-0.160398 0.03487,-0.251058 0.1604,-0.564882 0.08369,-0.216184 0.36962,-0.955414 0.36962,-1.345954 0,-0.67646 -0.53699,-0.79502 -0.9066,-0.79502 -0.57883,0 -0.96937,0.35567 -1.17858,0.63462 -0.04882,-0.48119 -0.46028,-0.63462 -0.74621,-0.63462 -0.299872,0 -0.460271,0.21619 -0.550931,0.37659 -0.153424,0.25803 -0.251058,0.65554 -0.251058,0.69041 0,0.09066 0.097634,0.09066 0.118555,0.09066 0.097634,0 0.104608,-0.02092 0.153425,-0.20921 0.104608,-0.41146 0.237111,-0.75318 0.509089,-0.75318 0.18132,0 0.23014,0.15343 0.23014,0.34172 0,0.1325 -0.06277,0.39053 -0.11158,0.57883 -0.04881,0.1883 -0.11856,0.47422 -0.15343,0.62765 z"
           id="equation_02_03" />
      </defs>
      <g
         style="stroke:none"
         id="equation_02_g">
        <use
           style="stroke:none"
           height="100%"
           width="100%"
           x="76.712303"
           xlink:href="#equation_02_00"
           y="62.764599"
           id="use2569" />
        <use
           style="stroke:none"
           height="100%"
           width="100%"
           x="81.159798"
           xlink:href="#equation_02_01"
           y="64.259003"
           id="use2571" />
        <use
           style="stroke:none"
           height="100%"
           width="100%"
           x="84.6633"
           xlink:href="#equation_02_02"
           y="64.259003"
           id="use2573" />
        <use
           style="stroke:none"
           height="100%"
           width="100%"
           x="87.482101"
           xlink:href="#equation_02_03"
           y="64.259003"
           id="use2575" />
      </g>
    </g>
    <g
       title="$q_{bout}$"
       style="fill:#000000;stroke:none"
       id="equation_01"
       transform="matrix(0.41027508,0,0,0.41027508,14.496013,25.110986)">
      <defs
         id="defs2757">
        <path
           id="equation_01_00"
           d="m 4.50311,-4.2939 c 0,-0.03985 -0.02988,-0.09962 -0.09962,-0.09962 -0.10959,0 -0.5081,0.3985 -0.67746,0.68742 -0.21918,-0.53798 -0.60772,-0.69739 -0.92653,-0.69739 -1.17559,0 -2.400994,1.47447 -2.400994,2.91906 0,0.976335 0.587795,1.594019 1.315064,1.594019 0.4284,0 0.81694,-0.239103 1.1756,-0.597758 C 2.7995,-0.139477 2.47073,1.20548 2.44085,1.29514 2.36115,1.5741 2.28144,1.61395 1.72354,1.62391 c -0.12952,0 -0.22914,0 -0.22914,0.19925 0,0.00997 0,0.10959 0.12951,0.10959 0.3188,0 0.6675,-0.02989 0.99626,-0.02989 0.33873,0 0.69739,0.02989 1.02616,0.02989 0.04981,0 0.17932,0 0.17932,-0.19925 0,-0.10959 -0.09962,-0.10959 -0.25902,-0.10959 -0.47821,0 -0.47821,-0.06974 -0.47821,-0.1594 0,-0.06974 0.01992,-0.12952 0.03985,-0.21918 z m -2.75965,4.184311 c -0.59776,0 -0.63761,-0.767123 -0.63761,-0.936491 0,-0.4782 0.28892,-1.56413 0.45828,-1.98256 0.30885,-0.73724 0.8269,-1.15567 1.23537,-1.15567 0.64757,0 0.78705,0.80698 0.78705,0.87671 0,0.05978 -0.54794,2.2416 -0.57783,2.28145 -0.14944,0.278952 -0.70735,0.916561 -1.26526,0.916561 z"
           inkscape:connector-curvature="0" />
        <path
           id="equation_01_01"
           d="m 1.8411,-4.63064 c 0.00697,-0.01394 0.02789,-0.1046 0.02789,-0.11158 0,-0.03487 -0.02789,-0.09763 -0.11158,-0.09763 -0.13948,0 -0.71831,0.05579 -0.892653,0.06974 -0.055791,0.00697 -0.153424,0.01395 -0.153424,0.1604 0,0.09763 0.097633,0.09763 0.18132,0.09763 0.334747,0 0.334747,0.04882 0.334747,0.10461 0,0.04881 -0.06974,0.32777 -0.11158,0.48817 l -0.160403,0.64159 c -0.062764,0.23711 -0.446326,1.76438 -0.460274,1.85504 -0.034869,0.16738 -0.034869,0.25804 -0.034869,0.34172 0,0.704362 0.446326,1.1506885 1.025156,1.1506885 0.87173,0 1.79925,-0.9484435 1.79925,-1.9805685 0,-0.81594 -0.56488,-1.16464 -1.04607,-1.16464 -0.36264,0 -0.66949,0.20224 -0.87871,0.38356 z m -0.3487,4.505111 c -0.34172,0 -0.536983,-0.299876 -0.536983,-0.711333 0,-0.258028 0.062763,-0.495138 0.258033,-1.283188 0.04184,-0.1325 0.04184,-0.14645 0.17435,-0.29988 0.265,-0.30684 0.57883,-0.46027 0.82988,-0.46027 0.27198,0 0.50909,0.20224 0.50909,0.67646 0,0.28593 -0.15342,0.99726 -0.36264,1.401747 -0.16737,0.341719 -0.51606,0.676464 -0.87173,0.676464 z"
           inkscape:connector-curvature="0" />
        <path
           id="equation_01_02"
           d="m 3.70311,-1.85504 c 0,-0.7741 -0.57883,-1.22043 -1.26226,-1.22043 -1.03213,0 -2.008471,0.96937 -2.008471,1.92479 0,0.69738 0.50909,1.2204185 1.269241,1.2204185 0.99726,0 2.00149,-0.9205475 2.00149,-1.9247785 z m -1.99452,1.729511 c -0.34869,0 -0.69738,-0.223163 -0.69738,-0.774097 0,-0.285924 0.1325,-0.969364 0.40448,-1.366874 0.29988,-0.43238 0.70436,-0.6137 1.01818,-0.6137 0.37659,0 0.69739,0.25803 0.69739,0.7741 0,0.16737 -0.08369,0.85778 -0.39054,1.345951 -0.265,0.411457 -0.68343,0.63462 -1.03213,0.63462 z"
           inkscape:connector-curvature="0" />
        <path
           id="equation_01_03"
           d="M 1.71557,-2.75467 H 2.4269 c 0.1325,0 0.22316,0 0.22316,-0.15342 0,-0.09764 -0.09066,-0.09764 -0.20921,-0.09764 H 1.77833 l 0.25803,-1.03213 c 0.00698,-0.03487 0.02093,-0.06974 0.02093,-0.09763 0,-0.12553 -0.09764,-0.22317 -0.23712,-0.22317 -0.17434,0 -0.27895,0.11856 -0.32777,0.29988 -0.04881,0.17435 0.04185,-0.1604 -0.265,1.05305 H 0.516065 c -0.132503,0 -0.223163,0 -0.223163,0.15343 0,0.09763 0.083686,0.09763 0.209215,0.09763 H 1.16463 l -0.411454,1.64583 c -0.041843,0.174344 -0.104608,0.425403 -0.104608,0.516063 0,0.411457 0.348692,0.6625155 0.746202,0.6625155 0.7741,0 1.21345,-0.9763385 1.21345,-1.0669985 0,-0.09066 -0.09066,-0.09066 -0.11158,-0.09066 -0.08369,0 -0.09066,0.01395 -0.14645,0.132503 -0.19527,0.439352 -0.55094,0.829888 -0.9345,0.829888 -0.14645,0 -0.24408,-0.09066 -0.24408,-0.341719 0,-0.069738 0.02789,-0.216189 0.04184,-0.285928 z"
           inkscape:connector-curvature="0" />
        <path
           id="equation_01_04"
           d="m 2.94994,-1.12976 c -0.03487,0.139474 -0.09764,0.40448 -0.11158,0.411454 -0.13251,0.216189 -0.41146,0.592777 -0.84384,0.592777 -0.48119,0 -0.48119,-0.4533 -0.48119,-0.57883 0,-0.411461 0.19526,-0.906601 0.39053,-1.415691 0.05579,-0.13948 0.09763,-0.24408 0.09763,-0.35567 0,-0.36264 -0.30684,-0.59975 -0.66251,-0.59975 -0.697386,0 -1.011209,0.95542 -1.011209,1.067 0,0.09066 0.097634,0.09066 0.118555,0.09066 0.097634,0 0.104608,-0.03487 0.12553,-0.11158 0.167372,-0.57186 0.474224,-0.85081 0.746204,-0.85081 0.11855,0 0.17434,0.07671 0.17434,0.24409 0,0.16039 -0.05579,0.30684 -0.12553,0.46724 -0.376584,0.96239 -0.376584,1.16464 -0.376584,1.35293 0,0.118555 0,0.439352 0.258034,0.662515 0.20224,0.1673727 0.47422,0.2231635 0.71831,0.2231635 0.43935,0 0.67646,-0.2371105 0.9066,-0.4602735 0.15342,0.4463258 0.62067,0.4602735 0.70435,0.4602735 0.23711,0 0.41843,-0.139477 0.55094,-0.3696135 0.15342,-0.271981 0.25106,-0.676464 0.25106,-0.697385 0,-0.09066 -0.09764,-0.09066 -0.11856,-0.09066 -0.09763,0 -0.10461,0.0279 -0.15342,0.216189 -0.08369,0.327771 -0.21619,0.746202 -0.50909,0.746202 -0.18132,0 -0.23014,-0.160399 -0.23014,-0.341719 0,-0.118555 0.05579,-0.369614 0.10461,-0.550932 0.04881,-0.1883 0.11855,-0.47422 0.15342,-0.62765 L 3.7868,-2.2665 c 0.04184,-0.17435 0.11855,-0.4812 0.11855,-0.51607 0,-0.13947 -0.11158,-0.22316 -0.23013,-0.22316 -0.25803,0 -0.30685,0.20224 -0.36264,0.42541 z"
           inkscape:connector-curvature="0" />
      </defs>
      <g
         id="equation_01_g"
         style="stroke:none">
        <use
           id="use2759"
           y="62.764599"
           xlink:href="#equation_01_00"
           x="76.712303"
           style="stroke:none"
           width="100%"
           height="100%" />
        <use
           id="use2761"
           y="64.259003"
           xlink:href="#equation_01_01"
           x="81.159798"
           style="stroke:none"
           width="100%"
           height="100%" />
        <use
           id="use2763"
           y="64.259003"
           xlink:href="#equation_01_02"
           x="84.6633"
           style="stroke:none"
           width="100%"
           height="100%" />
        <use
           id="use2765"
           y="64.259003"
           xlink:href="#equation_01_04"
           x="88.595802"
           style="stroke:none"
           width="100%"
           height="100%" />
        <use
           id="use2767"
           y="64.259003"
           xlink:href="#equation_01_03"
           x="93.306198"
           style="stroke:none"
           width="100%"
           height="100%" />
      </g>
    </g>
    <rect
       style="opacity:1;vector-effect:none;fill:#e84a4a;fill-opacity:0.58823529;stroke:none;stroke-width:0.11448803;stroke-linecap:butt;stroke-linejoin:miter;stroke-miterlimit:4;stroke-dasharray:none;stroke-dashoffset:0;stroke-opacity:1"
       id="rect2902"
       width="15.445321"
       height="2.6414607"
       x="29.30768"
       y="51.841312" />
    <rect
       style="opacity:1;vector-effect:none;fill:#4f4ae8;fill-opacity:0.58823529;stroke:none;stroke-width:0.11448803;stroke-linecap:butt;stroke-linejoin:miter;stroke-miterlimit:4;stroke-dasharray:none;stroke-dashoffset:0;stroke-opacity:1"
       id="rect2902-0"
       width="15.445321"
       height="2.6414607"
       x="29.30768"
       y="54.482773" />
    <g
       title="$q_{bin}&gt;q_{bout}$"
       style="fill:#000000;stroke:none"
       id="equation_03"
       transform="matrix(0.2638403,0,0,0.2638403,10.554132,36.794256)">
      <defs
         id="defs4829">
        <path
           id="equation_03_00"
           d="m 6.72478,-2.27148 c 0.10959,-0.04982 0.18929,-0.09963 0.18929,-0.21918 0,-0.11955 -0.0797,-0.16936 -0.18929,-0.21918 L 1.20548,-5.31009 C 1.07597,-5.37983 1.05604,-5.37983 1.02615,-5.37983 c -0.109587,0 -0.199251,0.08967 -0.199251,0.19926 0,0.08966 0.049813,0.14944 0.189291,0.21918 l 5.23039,2.47073 -5.23039,2.4707347 C 0.876712,0.0498132 0.826899,0.109589 0.826899,0.199253 c 0,0.109589 0.089664,0.199253 0.199251,0.199253 0.02989,0 0.04982,0 0.17933,-0.069739 z"
           inkscape:connector-curvature="0" />
        <path
           id="equation_03_01"
           d="m 4.50311,-4.2939 c 0,-0.03985 -0.02988,-0.09962 -0.09962,-0.09962 -0.10959,0 -0.5081,0.3985 -0.67746,0.68742 -0.21918,-0.53798 -0.60772,-0.69739 -0.92653,-0.69739 -1.17559,0 -2.400994,1.47447 -2.400994,2.91906 0,0.976335 0.587795,1.594019 1.315064,1.594019 0.4284,0 0.81694,-0.239103 1.1756,-0.597758 C 2.7995,-0.139477 2.47073,1.20548 2.44085,1.29514 2.36115,1.5741 2.28144,1.61395 1.72354,1.62391 c -0.12952,0 -0.22914,0 -0.22914,0.19925 0,0.00997 0,0.10959 0.12951,0.10959 0.3188,0 0.6675,-0.02989 0.99626,-0.02989 0.33873,0 0.69739,0.02989 1.02616,0.02989 0.04981,0 0.17932,0 0.17932,-0.19925 0,-0.10959 -0.09962,-0.10959 -0.25902,-0.10959 -0.47821,0 -0.47821,-0.06974 -0.47821,-0.1594 0,-0.06974 0.01992,-0.12952 0.03985,-0.21918 z m -2.75965,4.184311 c -0.59776,0 -0.63761,-0.767123 -0.63761,-0.936491 0,-0.4782 0.28892,-1.56413 0.45828,-1.98256 0.30885,-0.73724 0.8269,-1.15567 1.23537,-1.15567 0.64757,0 0.78705,0.80698 0.78705,0.87671 0,0.05978 -0.54794,2.2416 -0.57783,2.28145 -0.14944,0.278952 -0.70735,0.916561 -1.26526,0.916561 z"
           inkscape:connector-curvature="0" />
        <path
           id="equation_03_02"
           d="m 1.8411,-4.63064 c 0.00697,-0.01394 0.02789,-0.1046 0.02789,-0.11158 0,-0.03487 -0.02789,-0.09763 -0.11158,-0.09763 -0.13948,0 -0.71831,0.05579 -0.892653,0.06974 -0.055791,0.00697 -0.153424,0.01395 -0.153424,0.1604 0,0.09763 0.097633,0.09763 0.18132,0.09763 0.334747,0 0.334747,0.04882 0.334747,0.10461 0,0.04881 -0.06974,0.32777 -0.11158,0.48817 l -0.160403,0.64159 c -0.062764,0.23711 -0.446326,1.76438 -0.460274,1.85504 -0.034869,0.16738 -0.034869,0.25804 -0.034869,0.34172 0,0.704362 0.446326,1.1506885 1.025156,1.1506885 0.87173,0 1.79925,-0.9484435 1.79925,-1.9805685 0,-0.81594 -0.56488,-1.16464 -1.04607,-1.16464 -0.36264,0 -0.66949,0.20224 -0.87871,0.38356 z m -0.3487,4.505111 c -0.34172,0 -0.536983,-0.299876 -0.536983,-0.711333 0,-0.258028 0.062763,-0.495138 0.258033,-1.283188 0.04184,-0.1325 0.04184,-0.14645 0.17435,-0.29988 0.265,-0.30684 0.57883,-0.46027 0.82988,-0.46027 0.27198,0 0.50909,0.20224 0.50909,0.67646 0,0.28593 -0.15342,0.99726 -0.36264,1.401747 -0.16737,0.341719 -0.51606,0.676464 -0.87173,0.676464 z"
           inkscape:connector-curvature="0" />
        <path
           id="equation_03_03"
           d="m 2.25953,-4.35866 c 0,-0.11158 -0.08369,-0.265 -0.27896,-0.265 -0.18829,0 -0.39053,0.18132 -0.39053,0.38356 0,0.11856 0.09066,0.26501 0.27895,0.26501 0.20224,0 0.39054,-0.19527 0.39054,-0.38357 z m -1.422668,3.54272 c -0.027896,0.09066 -0.062765,0.174346 -0.062765,0.292901 0,0.327771 0.278953,0.5927775 0.662513,0.5927775 0.69739,0 1.00424,-0.9623915 1.00424,-1.0669985 0,-0.09066 -0.09066,-0.09066 -0.11158,-0.09066 -0.09764,0 -0.10461,0.04184 -0.13251,0.118555 -0.1604,0.557908 -0.46725,0.843836 -0.73923,0.843836 -0.13947,0 -0.17434,-0.09066 -0.17434,-0.244085 0,-0.160398 0.04881,-0.292902 0.11158,-0.446326 0.06974,-0.18829 0.14645,-0.37659 0.22316,-0.55791 0.06277,-0.16737 0.31383,-0.80199 0.34172,-0.88568 0.02092,-0.06974 0.04184,-0.15342 0.04184,-0.22316 0,-0.32777 -0.27895,-0.59278 -0.66251,-0.59278 -0.690412,0 -1.011209,0.94845 -1.011209,1.067 0,0.09066 0.097634,0.09066 0.118555,0.09066 0.097634,0 0.104608,-0.03487 0.12553,-0.11158 0.18132,-0.59975 0.488164,-0.85081 0.746204,-0.85081 0.11158,0 0.17434,0.05579 0.17434,0.24409 0,0.16039 -0.04184,0.265 -0.21619,0.69738 z"
           inkscape:connector-curvature="0" />
        <path
           id="equation_03_04"
           d="m 0.850809,-0.439352 c -0.027895,0.09066 -0.069738,0.265006 -0.069738,0.285927 0,0.153425 0.125529,0.2231635 0.237109,0.2231635 0.12553,0 0.23711,-0.09066 0.27198,-0.1534247 0.03487,-0.0627647 0.09066,-0.2859278 0.12553,-0.4323788 0.03487,-0.132503 0.11158,-0.4533 0.15343,-0.627645 0.04184,-0.15343 0.08368,-0.30685 0.11855,-0.46725 0.07671,-0.28593 0.09066,-0.34172 0.2929,-0.62765 0.19527,-0.27895 0.52304,-0.64159 1.04608,-0.64159 0.40448,0 0.41146,0.35567 0.41146,0.48817 0,0.41843 -0.29988,1.19253 -0.41146,1.48543 -0.07671,0.195267 -0.10461,0.258032 -0.10461,0.376588 0,0.369613 0.30685,0.5997505 0.66252,0.5997505 0.69738,0 1.00423,-0.9623915 1.00423,-1.0669985 0,-0.09066 -0.09066,-0.09066 -0.11158,-0.09066 -0.09763,0 -0.10461,0.04184 -0.1325,0.118555 -0.1604,0.557908 -0.46028,0.843836 -0.73923,0.843836 -0.14645,0 -0.17435,-0.097634 -0.17435,-0.244085 0,-0.160398 0.03487,-0.251058 0.1604,-0.564882 0.08369,-0.216184 0.36962,-0.955414 0.36962,-1.345954 0,-0.67646 -0.53699,-0.79502 -0.9066,-0.79502 -0.57883,0 -0.96937,0.35567 -1.17858,0.63462 -0.04882,-0.48119 -0.46028,-0.63462 -0.74621,-0.63462 -0.299872,0 -0.460271,0.21619 -0.550931,0.37659 -0.153424,0.25803 -0.251058,0.65554 -0.251058,0.69041 0,0.09066 0.097634,0.09066 0.118555,0.09066 0.097634,0 0.104608,-0.02092 0.153425,-0.20921 0.104608,-0.41146 0.237111,-0.75318 0.509089,-0.75318 0.18132,0 0.23014,0.15343 0.23014,0.34172 0,0.1325 -0.06277,0.39053 -0.11158,0.57883 -0.04881,0.1883 -0.11856,0.47422 -0.15343,0.62765 z"
           inkscape:connector-curvature="0" />
        <path
           id="equation_03_05"
           d="m 3.70311,-1.85504 c 0,-0.7741 -0.57883,-1.22043 -1.26226,-1.22043 -1.03213,0 -2.008471,0.96937 -2.008471,1.92479 0,0.69738 0.50909,1.2204185 1.269241,1.2204185 0.99726,0 2.00149,-0.9205475 2.00149,-1.9247785 z m -1.99452,1.729511 c -0.34869,0 -0.69738,-0.223163 -0.69738,-0.774097 0,-0.285924 0.1325,-0.969364 0.40448,-1.366874 0.29988,-0.43238 0.70436,-0.6137 1.01818,-0.6137 0.37659,0 0.69739,0.25803 0.69739,0.7741 0,0.16737 -0.08369,0.85778 -0.39054,1.345951 -0.265,0.411457 -0.68343,0.63462 -1.03213,0.63462 z"
           inkscape:connector-curvature="0" />
        <path
           id="equation_03_06"
           d="M 1.71557,-2.75467 H 2.4269 c 0.1325,0 0.22316,0 0.22316,-0.15342 0,-0.09764 -0.09066,-0.09764 -0.20921,-0.09764 H 1.77833 l 0.25803,-1.03213 c 0.00698,-0.03487 0.02093,-0.06974 0.02093,-0.09763 0,-0.12553 -0.09764,-0.22317 -0.23712,-0.22317 -0.17434,0 -0.27895,0.11856 -0.32777,0.29988 -0.04881,0.17435 0.04185,-0.1604 -0.265,1.05305 H 0.516065 c -0.132503,0 -0.223163,0 -0.223163,0.15343 0,0.09763 0.083686,0.09763 0.209215,0.09763 H 1.16463 l -0.411454,1.64583 c -0.041843,0.174344 -0.104608,0.425403 -0.104608,0.516063 0,0.411457 0.348692,0.6625155 0.746202,0.6625155 0.7741,0 1.21345,-0.9763385 1.21345,-1.0669985 0,-0.09066 -0.09066,-0.09066 -0.11158,-0.09066 -0.08369,0 -0.09066,0.01395 -0.14645,0.132503 -0.19527,0.439352 -0.55094,0.829888 -0.9345,0.829888 -0.14645,0 -0.24408,-0.09066 -0.24408,-0.341719 0,-0.069738 0.02789,-0.216189 0.04184,-0.285928 z"
           inkscape:connector-curvature="0" />
        <path
           id="equation_03_07"
           d="m 2.94994,-1.12976 c -0.03487,0.139474 -0.09764,0.40448 -0.11158,0.411454 -0.13251,0.216189 -0.41146,0.592777 -0.84384,0.592777 -0.48119,0 -0.48119,-0.4533 -0.48119,-0.57883 0,-0.411461 0.19526,-0.906601 0.39053,-1.415691 0.05579,-0.13948 0.09763,-0.24408 0.09763,-0.35567 0,-0.36264 -0.30684,-0.59975 -0.66251,-0.59975 -0.697386,0 -1.011209,0.95542 -1.011209,1.067 0,0.09066 0.097634,0.09066 0.118555,0.09066 0.097634,0 0.104608,-0.03487 0.12553,-0.11158 0.167372,-0.57186 0.474224,-0.85081 0.746204,-0.85081 0.11855,0 0.17434,0.07671 0.17434,0.24409 0,0.16039 -0.05579,0.30684 -0.12553,0.46724 -0.376584,0.96239 -0.376584,1.16464 -0.376584,1.35293 0,0.118555 0,0.439352 0.258034,0.662515 0.20224,0.1673727 0.47422,0.2231635 0.71831,0.2231635 0.43935,0 0.67646,-0.2371105 0.9066,-0.4602735 0.15342,0.4463258 0.62067,0.4602735 0.70435,0.4602735 0.23711,0 0.41843,-0.139477 0.55094,-0.3696135 0.15342,-0.271981 0.25106,-0.676464 0.25106,-0.697385 0,-0.09066 -0.09764,-0.09066 -0.11856,-0.09066 -0.09763,0 -0.10461,0.0279 -0.15342,0.216189 -0.08369,0.327771 -0.21619,0.746202 -0.50909,0.746202 -0.18132,0 -0.23014,-0.160399 -0.23014,-0.341719 0,-0.118555 0.05579,-0.369614 0.10461,-0.550932 0.04881,-0.1883 0.11855,-0.47422 0.15342,-0.62765 L 3.7868,-2.2665 c 0.04184,-0.17435 0.11855,-0.4812 0.11855,-0.51607 0,-0.13947 -0.11158,-0.22316 -0.23013,-0.22316 -0.25803,0 -0.30685,0.20224 -0.36264,0.42541 z"
           inkscape:connector-curvature="0" />
      </defs>
      <g
         id="equation_03_g"
         style="stroke:none">
        <use
           id="use4831"
           y="62.764599"
           xlink:href="#equation_03_01"
           x="76.712303"
           style="stroke:none"
           width="100%"
           height="100%" />
        <use
           id="use4833"
           y="64.259003"
           xlink:href="#equation_03_02"
           x="81.159798"
           style="stroke:none"
           width="100%"
           height="100%" />
        <use
           id="use4835"
           y="64.259003"
           xlink:href="#equation_03_03"
           x="84.6633"
           style="stroke:none"
           width="100%"
           height="100%" />
        <use
           id="use4837"
           y="64.259003"
           xlink:href="#equation_03_04"
           x="87.482101"
           style="stroke:none"
           width="100%"
           height="100%" />
        <use
           id="use4839"
           y="62.764599"
           xlink:href="#equation_03_00"
           x="95.672401"
           style="stroke:none"
           width="100%"
           height="100%" />
        <use
           id="use4841"
           y="62.764599"
           xlink:href="#equation_03_01"
           x="106.188"
           style="stroke:none"
           width="100%"
           height="100%" />
        <use
           id="use4843"
           y="64.259003"
           xlink:href="#equation_03_02"
           x="110.636"
           style="stroke:none"
           width="100%"
           height="100%" />
        <use
           id="use4845"
           y="64.259003"
           xlink:href="#equation_03_05"
           x="114.139"
           style="stroke:none"
           width="100%"
           height="100%" />
        <use
           id="use4847"
           y="64.259003"
           xlink:href="#equation_03_07"
           x="118.072"
           style="stroke:none"
           width="100%"
           height="100%" />
        <use
           id="use4849"
           y="64.259003"
           xlink:href="#equation_03_06"
           x="122.782"
           style="stroke:none"
           width="100%"
           height="100%" />
      </g>
    </g>
    <g
       transform="matrix(0.26283279,0,0,0.26283279,10.664438,39.981553)"
       id="equation_04"
       style="fill:#000000;stroke:none"
       title="$q_{bin}&lt;q_{bout}$">
      <defs
         id="defs5095">
        <path
           inkscape:connector-curvature="0"
           d="m 6.72478,-4.96139 c 0.11955,-0.05978 0.18929,-0.10959 0.18929,-0.21918 0,-0.10959 -0.08966,-0.19926 -0.19925,-0.19926 -0.02989,0 -0.04981,0 -0.17933,0.06974 l -5.5193,2.60025 c -0.10959,0.04982 -0.189291,0.09963 -0.189291,0.21918 0,0.11955 0.079701,0.16936 0.189291,0.21918 l 5.5193,2.600247 c 0.12952,0.069739 0.14944,0.069739 0.17933,0.069739 0.10959,0 0.19925,-0.089664 0.19925,-0.199253 0,-0.109589 -0.06974,-0.1594024 -0.18929,-0.2191783 L 1.4944,-2.49066 Z"
           id="equation_04_00" />
        <path
           inkscape:connector-curvature="0"
           d="m 4.50311,-4.2939 c 0,-0.03985 -0.02988,-0.09962 -0.09962,-0.09962 -0.10959,0 -0.5081,0.3985 -0.67746,0.68742 -0.21918,-0.53798 -0.60772,-0.69739 -0.92653,-0.69739 -1.17559,0 -2.400994,1.47447 -2.400994,2.91906 0,0.976335 0.587795,1.594019 1.315064,1.594019 0.4284,0 0.81694,-0.239103 1.1756,-0.597758 C 2.7995,-0.139477 2.47073,1.20548 2.44085,1.29514 2.36115,1.5741 2.28144,1.61395 1.72354,1.62391 c -0.12952,0 -0.22914,0 -0.22914,0.19925 0,0.00997 0,0.10959 0.12951,0.10959 0.3188,0 0.6675,-0.02989 0.99626,-0.02989 0.33873,0 0.69739,0.02989 1.02616,0.02989 0.04981,0 0.17932,0 0.17932,-0.19925 0,-0.10959 -0.09962,-0.10959 -0.25902,-0.10959 -0.47821,0 -0.47821,-0.06974 -0.47821,-0.1594 0,-0.06974 0.01992,-0.12952 0.03985,-0.21918 z m -2.75965,4.184311 c -0.59776,0 -0.63761,-0.767123 -0.63761,-0.936491 0,-0.4782 0.28892,-1.56413 0.45828,-1.98256 0.30885,-0.73724 0.8269,-1.15567 1.23537,-1.15567 0.64757,0 0.78705,0.80698 0.78705,0.87671 0,0.05978 -0.54794,2.2416 -0.57783,2.28145 -0.14944,0.278952 -0.70735,0.916561 -1.26526,0.916561 z"
           id="equation_04_01" />
        <path
           inkscape:connector-curvature="0"
           d="m 1.8411,-4.63064 c 0.00697,-0.01394 0.02789,-0.1046 0.02789,-0.11158 0,-0.03487 -0.02789,-0.09763 -0.11158,-0.09763 -0.13948,0 -0.71831,0.05579 -0.892653,0.06974 -0.055791,0.00697 -0.153424,0.01395 -0.153424,0.1604 0,0.09763 0.097633,0.09763 0.18132,0.09763 0.334747,0 0.334747,0.04882 0.334747,0.10461 0,0.04881 -0.06974,0.32777 -0.11158,0.48817 l -0.160403,0.64159 c -0.062764,0.23711 -0.446326,1.76438 -0.460274,1.85504 -0.034869,0.16738 -0.034869,0.25804 -0.034869,0.34172 0,0.704362 0.446326,1.1506885 1.025156,1.1506885 0.87173,0 1.79925,-0.9484435 1.79925,-1.9805685 0,-0.81594 -0.56488,-1.16464 -1.04607,-1.16464 -0.36264,0 -0.66949,0.20224 -0.87871,0.38356 z m -0.3487,4.505111 c -0.34172,0 -0.536983,-0.299876 -0.536983,-0.711333 0,-0.258028 0.062763,-0.495138 0.258033,-1.283188 0.04184,-0.1325 0.04184,-0.14645 0.17435,-0.29988 0.265,-0.30684 0.57883,-0.46027 0.82988,-0.46027 0.27198,0 0.50909,0.20224 0.50909,0.67646 0,0.28593 -0.15342,0.99726 -0.36264,1.401747 -0.16737,0.341719 -0.51606,0.676464 -0.87173,0.676464 z"
           id="equation_04_02" />
        <path
           inkscape:connector-curvature="0"
           d="m 2.25953,-4.35866 c 0,-0.11158 -0.08369,-0.265 -0.27896,-0.265 -0.18829,0 -0.39053,0.18132 -0.39053,0.38356 0,0.11856 0.09066,0.26501 0.27895,0.26501 0.20224,0 0.39054,-0.19527 0.39054,-0.38357 z m -1.422668,3.54272 c -0.027896,0.09066 -0.062765,0.174346 -0.062765,0.292901 0,0.327771 0.278953,0.5927775 0.662513,0.5927775 0.69739,0 1.00424,-0.9623915 1.00424,-1.0669985 0,-0.09066 -0.09066,-0.09066 -0.11158,-0.09066 -0.09764,0 -0.10461,0.04184 -0.13251,0.118555 -0.1604,0.557908 -0.46725,0.843836 -0.73923,0.843836 -0.13947,0 -0.17434,-0.09066 -0.17434,-0.244085 0,-0.160398 0.04881,-0.292902 0.11158,-0.446326 0.06974,-0.18829 0.14645,-0.37659 0.22316,-0.55791 0.06277,-0.16737 0.31383,-0.80199 0.34172,-0.88568 0.02092,-0.06974 0.04184,-0.15342 0.04184,-0.22316 0,-0.32777 -0.27895,-0.59278 -0.66251,-0.59278 -0.690412,0 -1.011209,0.94845 -1.011209,1.067 0,0.09066 0.097634,0.09066 0.118555,0.09066 0.097634,0 0.104608,-0.03487 0.12553,-0.11158 0.18132,-0.59975 0.488164,-0.85081 0.746204,-0.85081 0.11158,0 0.17434,0.05579 0.17434,0.24409 0,0.16039 -0.04184,0.265 -0.21619,0.69738 z"
           id="equation_04_03" />
        <path
           inkscape:connector-curvature="0"
           d="m 0.850809,-0.439352 c -0.027895,0.09066 -0.069738,0.265006 -0.069738,0.285927 0,0.153425 0.125529,0.2231635 0.237109,0.2231635 0.12553,0 0.23711,-0.09066 0.27198,-0.1534247 0.03487,-0.0627647 0.09066,-0.2859278 0.12553,-0.4323788 0.03487,-0.132503 0.11158,-0.4533 0.15343,-0.627645 0.04184,-0.15343 0.08368,-0.30685 0.11855,-0.46725 0.07671,-0.28593 0.09066,-0.34172 0.2929,-0.62765 0.19527,-0.27895 0.52304,-0.64159 1.04608,-0.64159 0.40448,0 0.41146,0.35567 0.41146,0.48817 0,0.41843 -0.29988,1.19253 -0.41146,1.48543 -0.07671,0.195267 -0.10461,0.258032 -0.10461,0.376588 0,0.369613 0.30685,0.5997505 0.66252,0.5997505 0.69738,0 1.00423,-0.9623915 1.00423,-1.0669985 0,-0.09066 -0.09066,-0.09066 -0.11158,-0.09066 -0.09763,0 -0.10461,0.04184 -0.1325,0.118555 -0.1604,0.557908 -0.46028,0.843836 -0.73923,0.843836 -0.14645,0 -0.17435,-0.097634 -0.17435,-0.244085 0,-0.160398 0.03487,-0.251058 0.1604,-0.564882 0.08369,-0.216184 0.36962,-0.955414 0.36962,-1.345954 0,-0.67646 -0.53699,-0.79502 -0.9066,-0.79502 -0.57883,0 -0.96937,0.35567 -1.17858,0.63462 -0.04882,-0.48119 -0.46028,-0.63462 -0.74621,-0.63462 -0.299872,0 -0.460271,0.21619 -0.550931,0.37659 -0.153424,0.25803 -0.251058,0.65554 -0.251058,0.69041 0,0.09066 0.097634,0.09066 0.118555,0.09066 0.097634,0 0.104608,-0.02092 0.153425,-0.20921 0.104608,-0.41146 0.237111,-0.75318 0.509089,-0.75318 0.18132,0 0.23014,0.15343 0.23014,0.34172 0,0.1325 -0.06277,0.39053 -0.11158,0.57883 -0.04881,0.1883 -0.11856,0.47422 -0.15343,0.62765 z"
           id="equation_04_04" />
        <path
           inkscape:connector-curvature="0"
           d="m 3.70311,-1.85504 c 0,-0.7741 -0.57883,-1.22043 -1.26226,-1.22043 -1.03213,0 -2.008471,0.96937 -2.008471,1.92479 0,0.69738 0.50909,1.2204185 1.269241,1.2204185 0.99726,0 2.00149,-0.9205475 2.00149,-1.9247785 z m -1.99452,1.729511 c -0.34869,0 -0.69738,-0.223163 -0.69738,-0.774097 0,-0.285924 0.1325,-0.969364 0.40448,-1.366874 0.29988,-0.43238 0.70436,-0.6137 1.01818,-0.6137 0.37659,0 0.69739,0.25803 0.69739,0.7741 0,0.16737 -0.08369,0.85778 -0.39054,1.345951 -0.265,0.411457 -0.68343,0.63462 -1.03213,0.63462 z"
           id="equation_04_05" />
        <path
           inkscape:connector-curvature="0"
           d="M 1.71557,-2.75467 H 2.4269 c 0.1325,0 0.22316,0 0.22316,-0.15342 0,-0.09764 -0.09066,-0.09764 -0.20921,-0.09764 H 1.77833 l 0.25803,-1.03213 c 0.00698,-0.03487 0.02093,-0.06974 0.02093,-0.09763 0,-0.12553 -0.09764,-0.22317 -0.23712,-0.22317 -0.17434,0 -0.27895,0.11856 -0.32777,0.29988 -0.04881,0.17435 0.04185,-0.1604 -0.265,1.05305 H 0.516065 c -0.132503,0 -0.223163,0 -0.223163,0.15343 0,0.09763 0.083686,0.09763 0.209215,0.09763 H 1.16463 l -0.411454,1.64583 c -0.041843,0.174344 -0.104608,0.425403 -0.104608,0.516063 0,0.411457 0.348692,0.6625155 0.746202,0.6625155 0.7741,0 1.21345,-0.9763385 1.21345,-1.0669985 0,-0.09066 -0.09066,-0.09066 -0.11158,-0.09066 -0.08369,0 -0.09066,0.01395 -0.14645,0.132503 -0.19527,0.439352 -0.55094,0.829888 -0.9345,0.829888 -0.14645,0 -0.24408,-0.09066 -0.24408,-0.341719 0,-0.069738 0.02789,-0.216189 0.04184,-0.285928 z"
           id="equation_04_06" />
        <path
           inkscape:connector-curvature="0"
           d="m 2.94994,-1.12976 c -0.03487,0.139474 -0.09764,0.40448 -0.11158,0.411454 -0.13251,0.216189 -0.41146,0.592777 -0.84384,0.592777 -0.48119,0 -0.48119,-0.4533 -0.48119,-0.57883 0,-0.411461 0.19526,-0.906601 0.39053,-1.415691 0.05579,-0.13948 0.09763,-0.24408 0.09763,-0.35567 0,-0.36264 -0.30684,-0.59975 -0.66251,-0.59975 -0.697386,0 -1.011209,0.95542 -1.011209,1.067 0,0.09066 0.097634,0.09066 0.118555,0.09066 0.097634,0 0.104608,-0.03487 0.12553,-0.11158 0.167372,-0.57186 0.474224,-0.85081 0.746204,-0.85081 0.11855,0 0.17434,0.07671 0.17434,0.24409 0,0.16039 -0.05579,0.30684 -0.12553,0.46724 -0.376584,0.96239 -0.376584,1.16464 -0.376584,1.35293 0,0.118555 0,0.439352 0.258034,0.662515 0.20224,0.1673727 0.47422,0.2231635 0.71831,0.2231635 0.43935,0 0.67646,-0.2371105 0.9066,-0.4602735 0.15342,0.4463258 0.62067,0.4602735 0.70435,0.4602735 0.23711,0 0.41843,-0.139477 0.55094,-0.3696135 0.15342,-0.271981 0.25106,-0.676464 0.25106,-0.697385 0,-0.09066 -0.09764,-0.09066 -0.11856,-0.09066 -0.09763,0 -0.10461,0.0279 -0.15342,0.216189 -0.08369,0.327771 -0.21619,0.746202 -0.50909,0.746202 -0.18132,0 -0.23014,-0.160399 -0.23014,-0.341719 0,-0.118555 0.05579,-0.369614 0.10461,-0.550932 0.04881,-0.1883 0.11855,-0.47422 0.15342,-0.62765 L 3.7868,-2.2665 c 0.04184,-0.17435 0.11855,-0.4812 0.11855,-0.51607 0,-0.13947 -0.11158,-0.22316 -0.23013,-0.22316 -0.25803,0 -0.30685,0.20224 -0.36264,0.42541 z"
           id="equation_04_07" />
      </defs>
      <g
         style="stroke:none"
         id="equation_04_g">
        <use
           height="100%"
           width="100%"
           style="stroke:none"
           x="76.712303"
           xlink:href="#equation_04_01"
           y="62.764599"
           id="use5097" />
        <use
           height="100%"
           width="100%"
           style="stroke:none"
           x="81.159798"
           xlink:href="#equation_04_02"
           y="64.259003"
           id="use5099" />
        <use
           height="100%"
           width="100%"
           style="stroke:none"
           x="84.6633"
           xlink:href="#equation_04_03"
           y="64.259003"
           id="use5101" />
        <use
           height="100%"
           width="100%"
           style="stroke:none"
           x="87.482101"
           xlink:href="#equation_04_04"
           y="64.259003"
           id="use5103" />
        <use
           height="100%"
           width="100%"
           style="stroke:none"
           x="95.672401"
           xlink:href="#equation_04_00"
           y="62.764599"
           id="use5105" />
        <use
           height="100%"
           width="100%"
           style="stroke:none"
           x="106.188"
           xlink:href="#equation_04_01"
           y="62.764599"
           id="use5107" />
        <use
           height="100%"
           width="100%"
           style="stroke:none"
           x="110.636"
           xlink:href="#equation_04_02"
           y="64.259003"
           id="use5109" />
        <use
           height="100%"
           width="100%"
           style="stroke:none"
           x="114.139"
           xlink:href="#equation_04_05"
           y="64.259003"
           id="use5111" />
        <use
           height="100%"
           width="100%"
           style="stroke:none"
           x="118.072"
           xlink:href="#equation_04_07"
           y="64.259003"
           id="use5113" />
        <use
           height="100%"
           width="100%"
           style="stroke:none"
           x="122.782"
           xlink:href="#equation_04_06"
           y="64.259003"
           id="use5115" />
      </g>
    </g>
    <flowRoot
       transform="matrix(0.34651759,0,0,0.26480112,-23.286359,29.663567)"
       style="font-style:normal;font-variant:normal;font-weight:normal;font-stretch:normal;font-size:8px;line-height:1.25;font-family:sans-serif;-inkscape-font-specification:'sans-serif, Normal';font-variant-ligatures:normal;font-variant-caps:normal;font-variant-numeric:normal;font-feature-settings:normal;text-align:center;letter-spacing:0px;word-spacing:0px;writing-mode:lr-tb;text-anchor:middle;fill:#ff0000;fill-opacity:1;stroke:none"
       id="flowRoot5258"
       xml:space="preserve"><flowRegion
         style="fill:#ff0000;fill-opacity:1"
         id="flowRegion5260"><rect
           style="fill:#ff0000;fill-opacity:1"
           y="107.47012"
           x="140.35715"
           height="23.214285"
           width="67.142845"
           id="rect5262" /></flowRegion><flowPara
         id="flowPara5266">control</flowPara><flowPara
         id="flowPara5270"> volume</flowPara></flowRoot>    <g
       title="$\Delta x$"
       style="fill:#000000;stroke:none"
       id="equation_05"
       transform="matrix(0.33160961,0,0,0.33160961,9.6828598,45.524692)">
      <defs
         id="defs5416">
        <path
           id="equation_05_00"
           d="m 3.32752,-3.00872 c 0.05978,-0.25903 0.28892,-1.17559 0.9863,-1.17559 0.04982,0 0.28892,0 0.49814,0.12952 -0.27896,0.04981 -0.47821,0.29887 -0.47821,0.53798 0,0.1594 0.10959,0.34869 0.37858,0.34869 0.21918,0 0.53798,-0.17933 0.53798,-0.57783 0,-0.51806 -0.58779,-0.65754 -0.92652,-0.65754 -0.57784,0 -0.92653,0.52802 -1.04608,0.75716 -0.24907,-0.65753 -0.78705,-0.75716 -1.07597,-0.75716 -1.03611,0 -1.603982,1.28518 -1.603982,1.53425 0,0.09963 0.099627,0.09963 0.119552,0.09963 0.079701,0 0.109589,-0.01993 0.129514,-0.10959 0.338726,-1.05604 0.996266,-1.30511 1.334996,-1.30511 0.18929,0 0.53798,0.08966 0.53798,0.6675 0,0.30884 -0.16936,0.97634 -0.53798,2.37111 -0.1594,0.61768 -0.5081,1.036111 -0.94645,1.036111 -0.05978,0 -0.288919,0 -0.498135,-0.129514 0.249066,-0.049814 0.468245,-0.259029 0.468245,-0.537983 0,-0.268994 -0.219179,-0.348694 -0.368618,-0.348694 -0.298879,0 -0.547945,0.25903 -0.547945,0.577835 0,0.4582812 0.498132,0.657534 0.936483,0.657534 0.65754,0 1.01619,-0.697385 1.04608,-0.757161 0.11955,0.368618 0.47821,0.757161 1.07597,0.757161 1.02615,0 1.59402,-1.285179 1.59402,-1.534249 0,-0.09962 -0.08966,-0.09962 -0.11955,-0.09962 -0.08967,0 -0.10959,0.03985 -0.12952,0.10959 -0.32876,1.065998 -1.00622,1.305101 -1.32503,1.305101 -0.38854,0 -0.54794,-0.318805 -0.54794,-0.657534 0,-0.219178 0.05977,-0.438357 0.16936,-0.876717 z"
           inkscape:connector-curvature="0" />
        <path
           id="equation_05_01"
           d="M 4.40349,-6.95392 C 4.33375,-7.08344 4.31382,-7.13325 4.14446,-7.13325 c -0.16936,0 -0.18929,0.04981 -0.25903,0.17933 L 0.518057,-0.199253 C 0.468244,-0.109589 0.468244,-0.0896638 0.468244,-0.0797011 0.468244,0 0.52802,0 0.687422,0 H 7.60149 c 0.15941,0 0.21918,0 0.21918,-0.0797011 0,-0.0099627 0,-0.0298879 -0.04981,-0.1195519 z M 3.82565,-6.13699 6.5056,-0.757161 H 1.13574 Z"
           inkscape:connector-curvature="0" />
      </defs>
      <g
         id="equation_05_g"
         style="stroke:none">
        <use
           id="use5418"
           y="62.764599"
           xlink:href="#equation_05_01"
           x="76.712303"
           width="100%"
           height="100%"
           style="stroke:none" />
        <use
           id="use5420"
           y="62.764599"
           xlink:href="#equation_05_00"
           x="85.014603"
           width="100%"
           height="100%"
           style="stroke:none" />
      </g>
    </g>
  </g>
</svg>
